<svg width="22" height="22" viewBox="0 0 22 22" fill="none" xmlns="http://www.w3.org/2000/svg">
<path d="M10.7312 1.98086C13.5572 1.98086 13.8919 1.99375 15.0033 2.04531C16.0362 2.09258 16.594 2.27305 16.9658 2.42344C17.4575 2.62109 17.8128 2.86172 18.1805 3.24414C18.5523 3.63086 18.7796 3.99609 18.9696 4.50742C19.1142 4.89414 19.2878 5.47851 19.3332 6.54844C19.3828 7.70859 19.3952 8.05664 19.3952 10.9914C19.3952 13.9305 19.3828 14.2785 19.3332 15.4344C19.2878 16.5086 19.1142 17.0887 18.9696 17.4754C18.7796 17.9867 18.5482 18.3562 18.1805 18.7387C17.8087 19.1254 17.4575 19.3617 16.9658 19.5594C16.594 19.7098 16.0321 19.8902 15.0033 19.9375C13.8878 19.9891 13.5531 20.0019 10.7312 20.0019C7.90519 20.0019 7.57053 19.9891 6.45913 19.9375C5.42623 19.8902 4.86846 19.7098 4.49662 19.5594C4.00496 19.3617 3.64964 19.1211 3.28192 18.7387C2.91008 18.3519 2.68284 17.9867 2.49279 17.4754C2.34818 17.0887 2.17465 16.5043 2.12921 15.4344C2.07963 14.2742 2.06723 13.9262 2.06723 10.9914C2.06723 8.05234 2.07963 7.70429 2.12921 6.54844C2.17465 5.47422 2.34818 4.89414 2.49279 4.50742C2.68284 3.99609 2.91421 3.62656 3.28192 3.24414C3.65377 2.85742 4.00496 2.62109 4.49662 2.42344C4.86846 2.27305 5.43036 2.09258 6.45913 2.04531C7.57053 1.99375 7.90519 1.98086 10.7312 1.98086ZM10.7312 0C7.85975 0 7.5003 0.0128906 6.37237 0.0644531C5.24857 0.116016 4.47596 0.305078 3.80664 0.575781C3.1084 0.859375 2.51758 1.2332 1.93089 1.84766C1.34007 2.45781 0.980619 3.07227 0.707932 3.79414C0.447641 4.49453 0.26585 5.29375 0.216271 6.4625C0.166692 7.63984 0.154297 8.01367 0.154297 11C0.154297 13.9863 0.166692 14.3602 0.216271 15.5332C0.26585 16.702 0.447641 17.5055 0.707932 18.2016C0.980619 18.9277 1.34007 19.5422 1.93089 20.1523C2.51758 20.7625 3.1084 21.1406 3.80251 21.4199C4.47596 21.6906 5.24444 21.8797 6.36824 21.9312C7.49616 21.9828 7.85561 21.9957 10.7271 21.9957C13.5986 21.9957 13.958 21.9828 15.0859 21.9312C16.2097 21.8797 16.9823 21.6906 17.6517 21.4199C18.3458 21.1406 18.9366 20.7625 19.5233 20.1523C20.11 19.5422 20.4735 18.9277 20.7421 18.2059C21.0024 17.5055 21.1842 16.7062 21.2338 15.5375C21.2833 14.3645 21.2957 13.9906 21.2957 11.0043C21.2957 8.01797 21.2833 7.64414 21.2338 6.47109C21.1842 5.30234 21.0024 4.49883 20.7421 3.80273C20.4818 3.07226 20.1224 2.45781 19.5315 1.84766C18.9449 1.2375 18.354 0.859375 17.6599 0.580078C16.9865 0.309375 16.218 0.120312 15.0942 0.06875C13.9621 0.0128906 13.6027 0 10.7312 0Z" fill="#EC3397"/>
<path d="M10.7314 5.34961C7.73186 5.34961 5.29834 7.88047 5.29834 11C5.29834 14.1195 7.73186 16.6504 10.7314 16.6504C13.731 16.6504 16.1645 14.1195 16.1645 11C16.1645 7.88047 13.731 5.34961 10.7314 5.34961ZM10.7314 14.6652C8.78542 14.6652 7.20714 13.0238 7.20714 11C7.20714 8.97617 8.78542 7.33477 10.7314 7.33477C12.6774 7.33477 14.2557 8.97617 14.2557 11C14.2557 13.0238 12.6774 14.6652 10.7314 14.6652Z" fill="#EC3397"/>
<path d="M17.6476 5.12627C17.6476 5.85674 17.0775 6.44542 16.3792 6.44542C15.6769 6.44542 15.1108 5.85245 15.1108 5.12627C15.1108 4.3958 15.681 3.80713 16.3792 3.80713C17.0775 3.80713 17.6476 4.4001 17.6476 5.12627Z" fill="#EC3397"/>
</svg>
