<svg width="22" height="22" viewBox="0 0 22 22" fill="none" xmlns="http://www.w3.org/2000/svg">
<path d="M19.8232 0H1.79252C1.37837 0 0.981179 0.171103 0.688329 0.475667C0.395479 0.780231 0.230957 1.19331 0.230957 1.62403V20.376C0.230957 20.8067 0.395479 21.2198 0.688329 21.5243C0.981179 21.8289 1.37837 22 1.79252 22H19.8232C20.2374 22 20.6346 21.8289 20.9274 21.5243C21.2203 21.2198 21.3848 20.8067 21.3848 20.376V1.62403C21.3848 1.19331 21.2203 0.780231 20.9274 0.475667C20.6346 0.171103 20.2374 0 19.8232 0ZM6.53598 18.7413H3.35556V8.23472H6.53598V18.7413ZM4.94356 6.77875C4.5828 6.77664 4.23072 6.66343 3.93176 6.45341C3.63281 6.2434 3.40037 5.94599 3.26378 5.59871C3.1272 5.25144 3.09259 4.86988 3.16432 4.50217C3.23605 4.13446 3.41091 3.79709 3.66683 3.53263C3.92275 3.26818 4.24826 3.08849 4.60228 3.01626C4.9563 2.94402 5.32296 2.98246 5.656 3.12674C5.98903 3.27101 6.2735 3.51465 6.47351 3.82691C6.67353 4.13917 6.78012 4.50605 6.77984 4.88125C6.78324 5.13245 6.73798 5.38179 6.64675 5.6144C6.55553 5.84702 6.4202 6.05816 6.24885 6.23523C6.07749 6.4123 5.87361 6.55168 5.64936 6.64505C5.42511 6.73843 5.18507 6.7839 4.94356 6.77875ZM18.2587 18.7504H15.0798V13.0106C15.0798 11.3178 14.3879 10.7953 13.4947 10.7953C12.5516 10.7953 11.6261 11.5347 11.6261 13.0533V18.7504H8.4457V8.24236H11.5042V9.69833H11.5453C11.8524 9.05208 12.9277 7.9475 14.5686 7.9475C16.3431 7.9475 18.2602 9.04292 18.2602 12.2513L18.2587 18.7504Z" fill="#0A66C2"/>
</svg>
