<svg width="22" height="18" viewBox="0 0 22 18" fill="none" xmlns="http://www.w3.org/2000/svg">
<path d="M6.72961 17.9382C14.7122 17.9382 19.0784 11.0601 19.0784 5.09544C19.0784 4.90008 19.0784 4.7056 19.0657 4.512C19.9151 3.87304 20.6483 3.08189 21.231 2.1756C20.439 2.5408 19.5987 2.78019 18.7382 2.88576C19.6443 2.32172 20.3224 1.43447 20.6463 0.389196C19.7944 0.915004 18.8623 1.28554 17.8904 1.4848C17.236 0.761159 16.3706 0.281984 15.428 0.121423C14.4854 -0.0391371 13.5181 0.127868 12.676 0.596595C11.8339 1.06532 11.1637 1.80964 10.7693 2.71437C10.3749 3.61909 10.2782 4.63379 10.4941 5.60144C8.76864 5.51142 7.08062 5.04505 5.53965 4.2326C3.99868 3.42015 2.6392 2.27979 1.54946 0.885516C0.994457 1.87918 0.824472 3.05548 1.07411 4.1749C1.32375 5.29433 1.97424 6.27273 2.89315 6.91088C2.20243 6.88983 1.52676 6.69604 0.923302 6.34592V6.40312C0.923577 7.44523 1.27045 8.45516 1.90508 9.26162C2.53971 10.0681 3.42304 10.6214 4.40523 10.8278C3.76627 11.009 3.09587 11.0355 2.44553 10.9052C2.72298 11.802 3.26294 12.5862 3.98994 13.1482C4.71694 13.7102 5.59462 14.0219 6.5003 14.0398C5.60045 14.7754 4.56997 15.3192 3.46782 15.6403C2.36567 15.9613 1.21348 16.0532 0.0771484 15.9106C2.06194 17.2352 4.37131 17.9379 6.72961 17.9346" fill="#1DA1F2"/>
</svg>
