<svg width="22" height="22" viewBox="0 0 22 22" fill="none" xmlns="http://www.w3.org/2000/svg">
<g clip-path="url(#clip0_21_334)">
<path d="M21.1538 11C21.1538 4.92486 16.4184 0 10.5769 0C4.73545 0 0 4.92486 0 11C0 16.4903 3.86781 21.0412 8.92428 21.8664V14.1797H6.23873V11H8.92428V8.57656C8.92428 5.81969 10.5034 4.29688 12.9193 4.29688C14.0762 4.29688 15.287 4.51172 15.287 4.51172V7.21875H13.9533C12.6394 7.21875 12.2296 8.06674 12.2296 8.9375V11H15.163L14.6941 14.1797H12.2296V21.8664C17.286 21.0412 21.1538 16.4903 21.1538 11Z" fill="#1877F2"/>
<path d="M14.6941 14.1797L15.163 11H12.2296V8.9375C12.2296 8.0676 12.6395 7.21875 13.9533 7.21875H15.287V4.51172C15.287 4.51172 14.0766 4.29688 12.9194 4.29688C10.5034 4.29688 8.92432 5.81969 8.92432 8.57656V11H6.23877V14.1797H8.92432V21.8664C10.0194 22.0445 11.1345 22.0445 12.2296 21.8664V14.1797H14.6941Z" fill="white"/>
</g>
<defs>
<clipPath id="clip0_21_334">
<rect width="21.1538" height="22" fill="white"/>
</clipPath>
</defs>
</svg>
